<mxfile host="app.diagrams.net" modified="2022-11-05T05:55:21.523Z" agent="5.0 (X11; Linux x86_64) AppleWebKit/537.36 (KHTML, like Gecko) Chrome/106.0.0.0 Safari/537.36" etag="X4zbzzrP7DtlSZiKoWhg" version="20.5.1" type="github">
  <diagram id="np1XP57QNDO1UIkWTCyT" name="第 1 页">
    <mxGraphModel dx="1422" dy="748" grid="1" gridSize="10" guides="1" tooltips="1" connect="1" arrows="1" fold="1" page="1" pageScale="1" pageWidth="827" pageHeight="1169" math="0" shadow="0">
      <root>
        <mxCell id="0" />
        <mxCell id="1" parent="0" />
        <mxCell id="1YgYuP-Xy1my0L5bVgDo-14" value="" style="group" vertex="1" connectable="0" parent="1">
          <mxGeometry x="140" y="120" width="510" height="210" as="geometry" />
        </mxCell>
        <mxCell id="1YgYuP-Xy1my0L5bVgDo-11" value="" style="rounded=0;whiteSpace=wrap;html=1;" vertex="1" parent="1YgYuP-Xy1my0L5bVgDo-14">
          <mxGeometry width="290" height="210" as="geometry" />
        </mxCell>
        <mxCell id="1YgYuP-Xy1my0L5bVgDo-3" value="" style="shape=datastore;whiteSpace=wrap;html=1;" vertex="1" parent="1YgYuP-Xy1my0L5bVgDo-14">
          <mxGeometry x="450" y="95" width="60" height="60" as="geometry" />
        </mxCell>
        <mxCell id="1YgYuP-Xy1my0L5bVgDo-13" style="edgeStyle=orthogonalEdgeStyle;curved=1;rounded=0;orthogonalLoop=1;jettySize=auto;html=1;exitX=1;exitY=0.5;exitDx=0;exitDy=0;entryX=0;entryY=0.5;entryDx=0;entryDy=0;shape=flexArrow;startArrow=block;" edge="1" parent="1YgYuP-Xy1my0L5bVgDo-14" source="1YgYuP-Xy1my0L5bVgDo-11" target="1YgYuP-Xy1my0L5bVgDo-3">
          <mxGeometry relative="1" as="geometry" />
        </mxCell>
        <mxCell id="1YgYuP-Xy1my0L5bVgDo-4" value="数据库" style="text;html=1;align=center;verticalAlign=middle;resizable=0;points=[];autosize=1;strokeColor=none;fillColor=none;" vertex="1" parent="1YgYuP-Xy1my0L5bVgDo-14">
          <mxGeometry x="450" y="170" width="60" height="30" as="geometry" />
        </mxCell>
        <mxCell id="1YgYuP-Xy1my0L5bVgDo-10" value="" style="group" vertex="1" connectable="0" parent="1YgYuP-Xy1my0L5bVgDo-14">
          <mxGeometry x="20" y="50" width="250" height="150" as="geometry" />
        </mxCell>
        <mxCell id="1YgYuP-Xy1my0L5bVgDo-8" value="" style="rounded=0;whiteSpace=wrap;html=1;" vertex="1" parent="1YgYuP-Xy1my0L5bVgDo-10">
          <mxGeometry width="250" height="150" as="geometry" />
        </mxCell>
        <mxCell id="1YgYuP-Xy1my0L5bVgDo-2" value="后台任务1" style="rounded=0;whiteSpace=wrap;html=1;" vertex="1" parent="1YgYuP-Xy1my0L5bVgDo-10">
          <mxGeometry x="20" y="45" width="100" height="30" as="geometry" />
        </mxCell>
        <mxCell id="1YgYuP-Xy1my0L5bVgDo-5" value="后台任务2" style="rounded=0;whiteSpace=wrap;html=1;" vertex="1" parent="1YgYuP-Xy1my0L5bVgDo-10">
          <mxGeometry x="130" y="45" width="100" height="30" as="geometry" />
        </mxCell>
        <mxCell id="1YgYuP-Xy1my0L5bVgDo-6" value="后台任务3" style="rounded=0;whiteSpace=wrap;html=1;" vertex="1" parent="1YgYuP-Xy1my0L5bVgDo-10">
          <mxGeometry x="20" y="100" width="100" height="30" as="geometry" />
        </mxCell>
        <mxCell id="1YgYuP-Xy1my0L5bVgDo-7" value="后台任务4" style="rounded=0;whiteSpace=wrap;html=1;" vertex="1" parent="1YgYuP-Xy1my0L5bVgDo-10">
          <mxGeometry x="130" y="100" width="100" height="30" as="geometry" />
        </mxCell>
        <mxCell id="1YgYuP-Xy1my0L5bVgDo-9" value="后台任务线程" style="text;html=1;align=center;verticalAlign=middle;resizable=0;points=[];autosize=1;strokeColor=none;fillColor=none;" vertex="1" parent="1YgYuP-Xy1my0L5bVgDo-10">
          <mxGeometry width="100" height="30" as="geometry" />
        </mxCell>
        <mxCell id="1YgYuP-Xy1my0L5bVgDo-12" value="服务端进程" style="text;html=1;align=center;verticalAlign=middle;resizable=0;points=[];autosize=1;strokeColor=none;fillColor=none;" vertex="1" parent="1YgYuP-Xy1my0L5bVgDo-14">
          <mxGeometry width="80" height="30" as="geometry" />
        </mxCell>
      </root>
    </mxGraphModel>
  </diagram>
</mxfile>
